<svg xmlns="http://www.w3.org/2000/svg" version="1.1" xmlns:xlink="http://www.w3.org/1999/xlink" xmlns:svgjs="http://svgjs.com/svgjs" width="1000" height="1000"><rect width="1000" height="1000" rx="200" ry="200" fill="#ffffff"></rect><g transform="matrix(62.5,0,0,62.5,-0.00004398822784423828,-0.000014662742614746094)"><svg xmlns="http://www.w3.org/2000/svg" version="1.1" xmlns:xlink="http://www.w3.org/1999/xlink" xmlns:svgjs="http://svgjs.com/svgjs" width="16" height="16"><svg width="16" height="16" viewBox="0 0 16 16" version="1.1" id="svg1219" xml:space="preserve" inkscape:version="1.2 (dc2aedaf03, 2022-05-15)" sodipodi:docname="favicon.svg" xmlns:inkscape="http://www.inkscape.org/namespaces/inkscape" xmlns:sodipodi="http://sodipodi.sourceforge.net/DTD/sodipodi-0.dtd" xmlns="http://www.w3.org/2000/svg" xmlns:svg="http://www.w3.org/2000/svg"><sodipodi:namedview id="namedview1221" pagecolor="#ffffff" bordercolor="#666666" borderopacity="1.0" inkscape:showpageshadow="false" inkscape:pageopacity="0.0" inkscape:pagecheckerboard="true" inkscape:deskcolor="#d1d1d1" inkscape:document-units="mm" showgrid="false" borderlayer="false" showborder="true" inkscape:zoom="6.1433221" inkscape:cx="40.613205" inkscape:cy="-2.604454" inkscape:window-width="1920" inkscape:window-height="986" inkscape:window-x="1920" inkscape:window-y="33" inkscape:window-maximized="1" inkscape:current-layer="layer1"></sodipodi:namedview><defs id="defs1216"></defs><g inkscape:label="Ebene 1" inkscape:groupmode="layer" id="layer1"><g aria-label="sqS" transform="matrix(0.50461016,0,0,0.50461016,1.5692623,-5.2443136)" id="text1410" style="font-size:40px;line-height:1;font-family:'Bitstream Vera Sans';-inkscape-font-specification:'Bitstream Vera Sans';letter-spacing:0px;word-spacing:0px;white-space:pre;shape-inside:url(#rect1412);display:inline;fill:#d40000" inkscape:label="icon pathes"><path d="m 0.16,29.526625 c 1.104,0.848 1.888,1.12 3.28,1.12 1.616,0 3.232,-0.96 3.232,-2.768 0,-3.424 -3.84,-2.048 -3.84,-3.424 0,-0.432 0.544,-0.496 0.848,-0.496 0.464,0 0.96,0.192 1.312,0.464 l 1.376,-1.392 c -0.72,-0.672 -1.744,-1.152 -2.736,-1.152 -1.632,0 -3.12,0.848 -3.12,2.688 0,3.344 3.84,2.208 3.84,3.344 0,0.592 -0.704,0.656 -1.12,0.656 -0.704,0 -1.312,-0.256 -1.808,-0.752 z" style="font-weight:bold;font-size:16px;font-family:'ITC Kabel Std';-inkscape-font-specification:'ITC Kabel Std Bold'" id="path4055"></path><path d="m 14.079973,23.286625 h -0.032 c -0.464,-0.944 -1.488,-1.408 -2.512,-1.408 -2.2879996,0 -4.1119996,2 -4.1119996,4.256 0,2.544 1.712,4.512 4.2879996,4.512 0.848,0 1.76,-0.416 2.128,-1.216 h 0.032 v 3.904 l 2.496,-0.256 v -11.2 l -2.288,0.256 z m -4.1599996,2.976 c 0,-1.152 0.8799996,-2.144 1.9999996,-2.144 1.12,0 2,0.992 2,2.144 0,1.152 -0.88,2.144 -2,2.144 -1.12,0 -1.9999996,-0.992 -1.9999996,-2.144 z" style="font-weight:bold;font-size:16px;font-family:'ITC Kabel Std';-inkscape-font-specification:'ITC Kabel Std Bold'" id="path4057"></path><path d="m 25.055944,20.422625 c -0.976,-0.8 -2.256,-1.264 -3.52,-1.264 -1.984,0 -4,1.216 -4,3.392 0,3.936 4.912,2.912 4.912,4.624 0,0.704 -0.88,0.976 -1.44,0.976 -0.816,0 -1.552,-0.288 -2.064,-0.88 l -1.632,2.08 c 1.04,0.896 2.448,1.296 3.808,1.296 2.288,0 4.208,-1.2 4.208,-3.664 0,-4.032 -4.912,-2.896 -4.912,-4.64 0,-0.576 0.72,-0.864 1.2,-0.864 0.848,0 1.328,0.288 1.952,0.832 z" style="fill:#000000" id="path4059"></path></g></g></svg></svg></g></svg>